<svg viewBox="0 0 369 395" fill="none" xmlns="http://www.w3.org/2000/svg">
<path d="M142.074 158.732C134.185 160.114 125.397 163.734 116.074 170.826C110.907 175.326 101.074 186.426 103.074 194.826C103.574 199.159 105.374 208.326 108.574 210.326L113.574 213.326C114.907 213.992 118.074 214.926 120.074 213.326C125.074 210.992 137.674 209.126 148.074 220.326L162.074 232.326C165.407 235.826 171.574 237.126 183.574 220.326C188.907 211.492 194.874 188.626 176.074 167.826C171.979 163.814 164.046 159.15 153.574 158.218M142.074 158.732C142.409 158.673 142.742 158.619 143.074 158.568M142.074 158.732L143.074 158.568M143.074 158.568C141.24 165.487 138.874 180.026 144.074 182.826C144.907 183.326 147.074 184.026 149.074 182.826C150.907 181.42 154.374 174.531 153.574 158.218M143.074 158.568C146.795 157.999 150.308 157.927 153.574 158.218M239.574 196.326C239.24 205.326 240.374 222.026 247.574 216.826C249.074 215.659 251.974 211.526 251.574 204.326C251.24 201.458 249.974 195.132 247.574 192.774M247.574 192.774C249.331 192.239 250.855 191.939 252.074 191.826C264.574 191.826 274.907 204.492 279.074 211.826C282.674 217.826 282.907 230.659 282.574 236.326C282.574 243.926 275.907 256.826 272.574 262.326C268.974 269.126 265.407 267.492 264.074 265.826C250.474 252.226 237.407 248.826 232.574 248.826C227.374 248.426 221.407 249.992 219.074 250.826C215.874 251.723 213.74 248.866 213.074 247.326C207.874 238.126 211.24 227.159 213.574 222.826C224.861 203.57 238.996 195.383 247.574 192.774ZM61.5737 276.326C64.5737 299.326 84.9737 351.426 142.574 375.826C178.074 389.326 188.874 399.926 266.074 380.326C298.074 375.659 362.674 347.226 365.074 270.826C363.074 245.826 346.674 190.226 297.074 167.826C294.74 166.826 290.974 163.626 294.574 158.826C307.907 141.826 335.274 104.526 338.074 91.3255C343.24 75.8255 348.574 47.8255 329.074 35.8255C320.074 29.9922 297.374 22.8255 278.574 40.8255C261.907 57.6588 225.974 98.3254 215.574 126.325M243.574 80.8253C249.407 70.1587 261.074 46.3253 261.074 36.3253C262.574 23.492 258.474 -0.774654 230.074 4.82535C214.074 8.15865 179.174 28.0253 167.574 80.8253M168.074 77.8255C149.074 75.8255 105.174 80.9255 81.5737 117.326C70.7404 131.325 49.5737 171.425 51.5737 219.825C52.5737 229.492 55.9737 254.625 61.5737 277.825M66.0737 296.325C64.5737 287.325 68.3737 267.325 95.5737 259.325C112.074 254.159 149.574 251.325 167.574 281.325C172.574 291.492 191.874 310.425 229.074 304.825C250.407 301.159 293.274 302.525 294.074 337.325C295.074 346.825 291.674 368.425 270.074 378.825M73.5738 312.325C68.5738 320.492 51.3738 334.125 22.5738 323.325C16.2404 320.992 3.67377 310.825 4.07377 288.825C3.40708 277.325 6.97372 254.225 26.5737 253.825C32.0737 253.992 43.1737 257.925 43.5737 272.325C44.2404 277.159 44.2737 288.625 39.0737 295.825M36.0737 257.325C31.5737 249.325 22.9737 231.825 24.5737 225.825C24.7404 223.659 26.8737 218.725 34.0737 216.325C37.2404 215.825 45.3737 217.425 52.5737 227.825M147.5 161.5L146.5 180M245.5 196L244.5 214.5M183.074 245.326C183.907 245.659 185.674 247.426 186.074 251.826C186.407 253.659 188.174 256.726 192.574 254.326C193.907 253.159 195.474 249.926 191.074 246.326C189.24 244.826 185.174 241.926 183.574 242.326C182.407 242.326 180.674 242.926 183.074 245.326Z" stroke="black" stroke-width="7"/>
</svg>
